# AST/ASF file generated using VICON BodyLanguage
# -----------------------------------------------
:version 1.10
:name VICON
:units
  mass 1.0
  length 0.45
  angle deg
:documentation
   .ast/.asf automatically generated from VICON data using
   VICON BodyBuilder and BodyLanguage model FoxedUp or BRILLIANT.MOD
:root
   order TX TY TZ RX RY RZ
   axis XYZ
   position 0 0 0  
   orientation 0 0 0 
:bonedata
  begin
     id 1 
     name lhipjoint
     direction 0.597014 -0.743513 0.301268 
     length 2.48253 
     axis 0 0 0  XYZ
  end
  begin
     id 2 
     name lfemur
     direction 0.34202 -0.939693 0  
     length 7.51389  
     axis 0 0 20  XYZ
    dof rx ry rz
    limits (-160.0 20.0)
           (-70.0 70.0)
           (-60.0 70.0)
  end
  begin
     id 3 
     name ltibia
     direction 0.34202 -0.939693 0   
     length 7.54147   
     axis 0 0 20   XYZ
    dof rx
    limits (-10.0 170.0)
  end
  begin
     id 4 
     name lfoot
     direction 0.10378 -0.285133 0.952853   
     length 2.2132   
     axis -90 7.62852e-016 20   XYZ
    dof rx rz
    limits (-45.0 90.0)
           (-70.0 20.0)
  end
  begin
     id 5 
     name ltoes
     direction 1.5354e-011 -4.2171e-011 1   
     length 1.10362   
     axis -90 7.62852e-016 20   XYZ
    dof rx
    limits (-90.0 20.0)
  end
  begin
     id 6 
     name rhipjoint
     direction -0.591912 -0.747009 0.302685   
     length 2.47092  
     axis 0 0 0  XYZ 
  end
  begin
     id 7 
     name rfemur
     direction -0.34202 -0.939693 0   
     length 7.69991   
     axis 0 0 -20   XYZ
    dof rx ry rz
    limits (-160.0 20.0)
           (-70.0 70.0)
           (-70.0 60.0)
  end
  begin
     id 8 
     name rtibia
     direction -0.34202 -0.939693 0   
     length 7.40774   
     axis 0 0 -20   XYZ
    dof rx
    limits (-10.0 170.0)
 end
 begin
     id 9 
     name rfoot
     direction -0.0916245 -0.251736 0.963449   
     length 2.08235  
     axis -90 -7.62852e-016 -20   XYZ
    dof rx rz
    limits (-45.0 90.0)
           (-20.0 70.0)
  end
  begin
     id 10 
     name rtoes
     direction -1.53527e-011 -4.21878e-011 1   
     length 1.04369   
     axis -90 -7.62852e-016 -20   XYZ
    dof rx
    limits (-90.0 20.0)
  end
  begin
     id 11 
     name lowerback
     direction -0.0122523 0.991496 -0.12956   
     length 2.10814   
     axis 0 0 0   XYZ
    dof rx ry rz
    limits (-20.0 45.0)
           (-30.0 30.0)
           (-30.0 30.0)
  end
  begin
     id 12 
     name upperback
     direction 0.012378 0.999784 -0.0167122   
     length 2.11728   
     axis 0 0 0   XYZ
    dof rx ry rz
    limits (-20.0 45.0)
           (-30.0 30.0)
           (-30.0 30.0)
  end
  begin
     id 13 
     name thorax
     direction 0.0187236 0.998893 0.0431542   
     length 2.15267   
     axis 0 0 0   XYZ
    dof rx ry rz
    limits (-20.0 45.0)
           (-30.0 30.0)
           (-30.0 30.0)
  end
  begin
     id 14 
     name lowerneck
     direction 0.0165467 0.987304 0.157979   
     length 1.72129   
     axis 0 0 0   XYZ
    dof rx ry rz
    limits (-20.0 45.0)
           (-30.0 30.0)
           (-30.0 30.0)
  end
  begin
     id 15 
     name upperneck
     direction -0.0560236 0.986819 -0.151818   
     length 1.75382   
     axis 0 0 0   XYZ
    dof rx ry rz
    limits (-20.0 45.0)
           (-30.0 30.0)
           (-30.0 30.0)
  end
  begin
     id 16
     name head
     direction -0.0173602 0.99745 -0.0692312  
     length 1.76328  
     axis 0 0 0   XYZ
    dof rx ry rz
    limits (-20.0 45.0)
           (-30.0 30.0)
           (-30.0 30.0)
  end
  begin
     id 17 
     name lclavicle
     direction 0.957734 0.271724 -0.094399  
     length 3.5782  
     axis 0 0 0   XYZ
    dof ry rz
    limits (-20.0 10.0)
           (0.0 20.0)
  end
  begin
     id 18 
     name lhumerus
     direction 1 -4.48963e-011 1.21581e-027   
     length 5.25525   
     axis 180 -30 -90   XYZ
    dof rx ry rz
    limits (-60.0 90.0)
           (-90.0 90.0)
           (-90.0 90.0)
  end
  begin
     id 19
     name lradius
     direction 1 -4.48975e-011 3.71216e-028   
     length 3.35106   
     axis 180 -30 -90   XYZ
    dof rx
    limits (-10.0 170.0)
  end
  begin
     id 20
     name lwrist
     direction 1 -4.48957e-011 4.76535e-027   
     length 1.67553   
     axis -3.27501e-015 90 90   XYZ
    dof ry
    limits (-180.0 0.0)
 end
  begin
     id 21 
     name lhand
     direction 1 -4.49008e-011 9.52727e-027   
     length 0.574153   
     axis -6.08097e-015 90 90   XYZ
    dof rx rz
    limits (-90.0 90.0)
           (-45.0 45.0)
  end
  begin
     id 22 
     name lfingers
     direction 1 -4.48996e-011 1.90562e-026   
     length 0.462897   
     axis -1.21618e-014 90 90   XYZ
    dof rx
    limits (0.0 90.0)
  end
  begin
     id 23
     name lthumb
     direction 0.707107 -6.34908e-011 0.707107   
     length 0.66463   
     axis -90 45 -1.62303e-014   XYZ
    dof rx rz
    limits (-45.0 45.0)
           (-45.0 45.0)
  end
  begin
     id 24 
     name rclavicle
     direction -0.950439 0.29623 -0.0944132   
     length 3.45861  
     axis 0 0 0   XYZ 
    dof ry rz
    limits (-10.0 20.0)
           (-20.0 0.0)
  end
  begin
     id 25 
     name rhumerus
     direction -1 -4.48986e-011 1.25473e-027  
     length 5.33104   
     axis 180 30 90   XYZ
    dof rx ry rz
    limits (-90.0 60.0)
           (-90.0 90.0)
           (-90.0 90.0)
  end
  begin
     id 26 
     name rradius
     direction -1 -4.4894e-011 1.66273e-027   
     length 3.39883   
     axis 180 30 90   XYZ
    dof rx
    limits (-10.0 170.0)
  end
  begin
     id 27 
     name rwrist
     direction -1 -4.48946e-011 4.76572e-027   
     length 1.69941   
     axis -3.27501e-015 -90 -90   XYZ
    dof ry
    limits (-180.0 0.0)
  end
  begin
     id 28
     name rhand
     direction -1 -4.49028e-011 9.52595e-027   
     length 0.913886   
     axis -6.08097e-015 -90 -90   XYZ
    dof rx rz
    limits (-90.0 90.0)
           (-45.0 45.0)
  end
  begin
     id 29
     name rfingers
     direction -1 -4.48945e-011 1.9063e-026   
     length 0.736798   
     axis -1.21618e-014 -90 -90   XYZ
    dof rx
    limits (0.0 90.0)
  end
  begin
     id 30
     name rthumb
     direction -0.707107 -6.34966e-011 0.707107   
     length 1.0579   
     axis -90 -45 1.62303e-014   XYZ
    dof rx rz
    limits (-45.0 45.0)
           (-45.0 45.0)
  end
:hierarchy
  begin
    root lhipjoint rhipjoint lowerback
    lhipjoint lfemur
    lfemur ltibia
    ltibia lfoot
    lfoot ltoes
    rhipjoint rfemur
    rfemur rtibia
    rtibia rfoot
    rfoot rtoes
    lowerback upperback
    upperback thorax
    thorax lowerneck lclavicle rclavicle
    lowerneck upperneck
    upperneck head
    lclavicle lhumerus
    lhumerus lradius
    lradius lwrist
    lwrist lhand lthumb
    lhand lfingers
    rclavicle rhumerus
    rhumerus rradius
    rradius rwrist
    rwrist rhand rthumb
    rhand rfingers
  end

#!OML:ASF F:\VICON\USERDATA\INSTALL\rory3\rory3.ASF
:FULLY-SPECIFIED
:DEGREES
1860
root -5.33582 16.96 37.774 193.847 7.14407 -187.933
lowerback 27.6509 -5.59809 -0.34889
upperback 8.00962 -5.23938 2.76604
thorax -5.95193 -1.80455 4.83266
lowerneck -22.7754 1.6453 2.78029
upperneck 26.3905 3.65261 -5.44269
head 12.7478 1.33953 -1.88253
rclavicle 1.16885e-013 -2.22639e-014
rhumerus -3.74729 4.13492 -86.7608
rradius 77.6131
rwrist -56.1567
rhand -3.57831 2.13497
rfingers 7.12502
rthumb 22.1589 -26.6151
lclavicle 1.16885e-013 -2.22639e-014
lhumerus 1.37302 -20.0275 103.745
lradius 73.8689
lwrist 51.2046
lhand -13.1075 23.778
lfingers 7.12502
lthumb 12.9896 53.3536
rfemur -51.0624 2.38202 6.91482
rtibia 42.6312
rfoot -2.55778 -2.07418
rtoes 10.7445
lfemur -21.5338 5.94844 -28.617
ltibia 43.5373
lfoot -25.5595 2.12542
ltoes -8.00345
1861
root -5.40851 16.9494 37.8233 193.183 7.42333 -187.519
lowerback 27.0403 -5.4215 -0.219125
upperback 7.91065 -5.0341 2.90222
thorax -5.78432 -1.73191 4.80478
lowerneck -22.7843 1.71463 2.69665
upperneck 26.5282 3.81141 -5.45076
head 12.8125 1.40404 -1.84416
rclavicle 3.57812e-014 -4.53229e-014
rhumerus -5.11434 5.19146 -85.3666
rradius 79.8386
rwrist -56.982
rhand -2.91779 1.99049
rfingers 7.12502
rthumb 22.7929 -26.6829
lclavicle 3.57812e-014 -4.53229e-014
lhumerus 0.758137 -19.6526 103.81
lradius 75.619
lwrist 50.6748
lhand -10.2479 23.5442
lfingers 7.12502
lthumb 15.7449 52.9238
rfemur -50.4308 2.8948 6.99953
rtibia 42.3681
rfoot -2.32289 -2.12515
rtoes 10.5441
lfemur -20.7191 6.77094 -28.6667
ltibia 43.0501
lfoot -25.9666 2.68703
ltoes -7.62099
1862
root -5.46812 16.9438 37.8873 192.277 7.18422 -187.148
lowerback 26.8041 -5.47437 0.127642
upperback 7.70282 -5.0725 2.85447
thorax -5.93749 -1.76416 4.56074
lowerneck -22.2575 1.76756 2.79758
upperneck 26.4785 3.78849 -5.18555
head 12.6787 1.45595 -1.76205
rclavicle -1.35174e-014 2.38542e-015
rhumerus -6.59729 5.65274 -84.4813
rradius 81.795
rwrist -56.9828
rhand -0.352886 0.850442
rfingers 7.12502
rthumb 25.2523 -27.4984
lclavicle -1.35174e-014 2.38542e-015
lhumerus -0.250134 -19.1665 103.634
lradius 77.345
lwrist 50.0453
lhand -9.97456 21.8222
lfingers 7.12502
lthumb 16.0081 51.1808
rfemur -49.384 3.26197 7.10979
rtibia 42.0606
rfoot -2.15403 -2.46675
rtoes 10.2008
lfemur -19.6545 7.20245 -28.4654
ltibia 42.5957
lfoot -26.249 2.93122
ltoes -6.90547
1863
root -5.54564 16.9424 37.9472 191.213 7.19208 -186.963
lowerback 26.662 -5.30121 -0.00875301
upperback 7.43511 -4.92795 3.03823
thorax -6.14593 -1.71105 4.8016
lowerneck -21.4695 1.64852 2.57645
upperneck 26.366 3.73886 -5.16784
head 12.4671 1.44209 -1.72414
rclavicle 4.69132e-014 -8.74653e-015
rhumerus -8.05639 5.90943 -83.307
rradius 83.6891
rwrist -56.4493
rhand 4.01331 -1.45377
rfingers 7.12502
rthumb 29.4284 -29.143
lclavicle 4.69132e-014 -8.74653e-015
lhumerus -1.43287 -18.5845 103.98
lradius 78.9421
lwrist 50.5024
lhand -8.75811 20.2188
lfingers 7.12502
lthumb 17.1793 49.4794
rfemur -48.2686 3.52453 7.0357
rtibia 41.7481
rfoot -1.90682 -2.44832
rtoes 10.4751
lfemur -18.3886 7.04392 -28.4874
ltibia 42.1038
lfoot -26.7762 3.30447
ltoes -6.08693
1864
root -5.61488 16.9337 38.018 190.38 7.14258 -186.686
lowerback 25.8613 -5.33741 0.2664
upperback 7.40841 -5.00154 2.80095
thorax -5.82865 -1.77427 4.34585
lowerneck -21.0275 1.64773 2.8378
upperneck 26.3816 3.60622 -4.95601
head 12.3761 1.45236 -1.71038
rclavicle 2.8625e-014 1.51076e-014
rhumerus -9.05708 5.53917 -83.1335
rradius 85.327
rwrist -55.3432
rhand 9.27456 -4.2263
rfingers 7.12502
rthumb 34.438 -30.9118
lclavicle 2.8625e-014 1.51076e-014
lhumerus -1.989 -18.0781 103.233
lradius 80.1589
lwrist 51.5448
lhand -7.15915 20.3228
lfingers 7.12502
lthumb 18.7178 49.4423
rfemur -47.4136 3.66135 7.15093
rtibia 41.4138
rfoot -1.63777 -2.44222
rtoes 9.35407
lfemur -17.4415 6.60269 -28.3374
ltibia 41.6934
lfoot -27.2286 3.75199
ltoes -6.3307
1865
root -5.67917 16.9173 38.0954 189.562 6.87856 -186.819
lowerback 25.5742 -5.29906 0.00860796
upperback 7.13666 -5.10565 2.70818
thorax -5.96539 -1.84889 4.41359
lowerneck -21.1885 1.56506 2.76687
upperneck 26.7978 3.50806 -4.76936
head 12.564 1.43261 -1.64561
rclavicle -6.04305e-014 -2.38542e-015
rhumerus -9.93663 4.93541 -82.8438
rradius 86.7365
rwrist -54.2901
rhand 6.53033 -1.18736
rfingers 7.12502
rthumb 31.8285 -28.4275
lclavicle -6.04305e-014 -2.38542e-015
lhumerus -2.39906 -17.3307 102.887
lradius 80.7369
lwrist 52.1712
lhand -4.0247 19.9277
lfingers 7.12502
lthumb 21.7302 48.728
rfemur -46.6102 3.62445 6.78541
rtibia 41.0938
rfoot -1.33967 -2.52858
rtoes 9.38311
lfemur -16.5862 5.94456 -28.5929
ltibia 41.2811
lfoot -27.4376 4.45744
ltoes -8.1211
1866
root -5.73808 16.9071 38.1821 188.706 6.46186 -186.695
lowerback 25.1176 -5.32814 -0.0792291
upperback 7.14717 -5.20488 2.60413
thorax -5.72314 -1.90937 4.34074
lowerneck -21.43 1.51116 2.84281
upperneck 26.8478 3.34228 -4.62267
head 12.6229 1.38094 -1.63082
rclavicle -1.59028e-015 7.07673e-014
rhumerus -10.1382 3.80004 -82.717
rradius 87.6357
rwrist -53.0514
rhand 8.89805 -2.1929
rfingers 7.12502
rthumb 34.0804 -28.9588
lclavicle -1.59028e-015 7.07673e-014
lhumerus -2.24886 -16.988 102.169
lradius 80.7887
lwrist 52.3948
lhand -4.77888 19.4298
lfingers 7.12502
lthumb 21.0059 48.3122
rfemur -45.6418 3.71531 6.68002
rtibia 40.6936
rfoot -1.03532 -2.93178
rtoes 9.84241
lfemur -15.8071 5.41101 -28.5198
ltibia 41.0908
lfoot -27.4224 4.94757
ltoes -8.66102
